@startuml graph
skinparam Linetype ortho

class CarePlan_4b7859e5
class CarePlan_4c2b1d35
class CarePlan_7f29eb3e
class CarePlan_a6742e15
class CarePlan_cf7e5724
class CareTeam_3afaa94d
class CareTeam_730e97bc
class CareTeam_c185729a
class CareTeam_f68d4d34
class CareTeam_fc1863a5
class Claim_0c33ca26
class Claim_314dd20b
class Claim_3d421296
class Claim_52bce81b
class Claim_55a6278f
class Claim_56d7efdd
class Claim_6848bef3
class Claim_7160f633
class Claim_729086f2
class Claim_741db5a8
class Claim_84230ca6
class Claim_89ecebb2
class Claim_9295f4cb
class Claim_a62f35af
class Claim_a70b6446
class Claim_b0c7c1e9
class Claim_b8903313
class Claim_ba2673ba
class Claim_bbfabcfb
class Claim_c8e0a39a
class Claim_cb1e727a
class Claim_daac21d1
class Claim_e8fd9cfb
class Claim_ee6dbf91
class Claim_f657fb2c
class Claim_f76a6d51
class Condition_0dc9e8de
class Condition_11e684a0
class Condition_1883ea9e
class Condition_43aad50a
class Condition_4484e6d3
class Condition_4be07c8b
class Condition_53aee5f8
class Condition_7b9ede4c
class Condition_7f11693d
class Condition_98b45844
class Condition_9bd1a064
class Condition_c01a85ae
class Condition_ce4d7417
class Condition_d431a1bf
class Condition_ded95588
class Condition_ef8e393a
class Condition_fcdc4ad2
class DiagnosticReport_18de628e
class DiagnosticReport_5b3b009f
class DiagnosticReport_a61312d8
class DiagnosticReport_bc4af3ad
class DiagnosticReport_be6a0e03
class DiagnosticReport_e82c9aa7
class DiagnosticReport_f772eacd
class Encounter_00cefb53
class Encounter_0ce1ede0
class Encounter_19306858
class Encounter_194154a9
class Encounter_1a7bb029
class Encounter_3c1da3df
class Encounter_3f215624
class Encounter_5173ce09
class Encounter_78bbe8d2
class Encounter_8763caae
class Encounter_97027fee
class Encounter_a9bc996a
class Encounter_bcdd7b0f
class Encounter_d341db6d
class Encounter_df80c773
class Encounter_e000be6d
class Encounter_e31fe8bd
class Encounter_e5056c79
class Encounter_efc97ece
class Encounter_f8da79d6
class ExplanationOfBenefit_00f9f13c
class ExplanationOfBenefit_0cb06cf0
class ExplanationOfBenefit_34e8b4d9
class ExplanationOfBenefit_37958d6c
class ExplanationOfBenefit_4f3570a5
class ExplanationOfBenefit_52e6091c
class ExplanationOfBenefit_53481885
class ExplanationOfBenefit_57c24279
class ExplanationOfBenefit_5ab8bf02
class ExplanationOfBenefit_69120825
class ExplanationOfBenefit_7e2b0fad
class ExplanationOfBenefit_95dd2372
class ExplanationOfBenefit_98f9306f
class ExplanationOfBenefit_a2c3194f
class ExplanationOfBenefit_b83bcaa9
class ExplanationOfBenefit_c5bc1811
class ExplanationOfBenefit_cc2e8237
class ExplanationOfBenefit_d62744a7
class ExplanationOfBenefit_ebef18d8
class ExplanationOfBenefit_f5eaed47
class ImagingStudy_0c7f71af
class Immunization_0135b97f
class Immunization_45ef3707
class Immunization_4dc0a58b
class Immunization_5eda2868
class Immunization_65eda260
class Immunization_a98697be
class Immunization_aa5e30c1
class Immunization_b1eddeb9
class Immunization_cb354577
class Immunization_d4bc31ea
class MedicationRequest_2a68537b
class MedicationRequest_2f2c53ef
class MedicationRequest_8649eb1b
class MedicationRequest_a3494544
class MedicationRequest_dc17668d
class MedicationRequest_f64b65d2
class Observation_047de357
class Observation_099ef36e
class Observation_0b74d3e2
class Observation_13c7b593
class Observation_151bd390
class Observation_158318c4
class Observation_15f782cd
class Observation_17a207a5
class Observation_18f98db2
class Observation_2675dc5e
class Observation_29e15a91
class Observation_2c97ba90
class Observation_2d2b1b22
class Observation_2d2eb04c
class Observation_2e1d4d47
class Observation_2e9cea66
class Observation_2f870e05
class Observation_35dccf88
class Observation_363ee13b
class Observation_3975dabd
class Observation_3eb38a9f
class Observation_41051a88
class Observation_41f58f79
class Observation_43fbecc3
class Observation_443bfd6b
class Observation_45a14a01
class Observation_4a7150bb
class Observation_4bbbe87c
class Observation_4c7569ee
class Observation_4d03de2b
class Observation_5061a69e
class Observation_5480cc93
class Observation_54968a29
class Observation_549a2686
class Observation_54e11804
class Observation_57aebc44
class Observation_59e983bb
class Observation_5c32f9fe
class Observation_5d7466c6
class Observation_601ef49b
class Observation_6182b255
class Observation_61967a06
class Observation_6779b60a
class Observation_6831fb74
class Observation_6b425bff
class Observation_6c9ce2ff
class Observation_7111281a
class Observation_719fc380
class Observation_7413c95b
class Observation_767296e1
class Observation_7673c119
class Observation_7a5e20d0
class Observation_7e18b3e6
class Observation_7eb29847
class Observation_81115e65
class Observation_86e8a1dc
class Observation_8720ebdc
class Observation_8f94c891
class Observation_9472b5ee
class Observation_985a7c52
class Observation_98bd2823
class Observation_9ade6fad
class Observation_9b2b6c04
class Observation_a02ce0c8
class Observation_a16ddc23
class Observation_a836db0b
class Observation_a8ebebe2
class Observation_abeff9a8
class Observation_b2add72f
class Observation_b2c26e0f
class Observation_b3eafcce
class Observation_b3fbbc38
class Observation_b7131b9b
class Observation_b7b9f3d0
class Observation_b9d7e57e
class Observation_bd75f5f5
class Observation_be28b28c
class Observation_c16cb2ae
class Observation_c3d6a8c9
class Observation_c438bf96
class Observation_c463f286
class Observation_c7d98de9
class Observation_c9929e19
class Observation_cca3e82a
class Observation_cd2cf75b
class Observation_cd950ffa
class Observation_ce497f44
class Observation_d8646d30
class Observation_da53b5e0
class Observation_dcab4fe6
class Observation_dd07d3c7
class Observation_e3df95c3
class Observation_eb2358dc
class Observation_edfb2ae8
class Observation_ee5a0d4e
class Observation_f46b1a77
class Observation_f49b5b78
class Observation_f566b629
class Observation_f966a91d
class Observation_fa11eba1
class Observation_fb99192f
class Observation_fc064294
class Observation_fc4525be
class Organization_0c127383
class Organization_4efb4d4a
class Organization_ef6ab57c
class Patient_36de99d8
class Practitioner_3cfe5647
class Practitioner_7f34135f
class Practitioner_c0f93127
class Procedure_2d4eb209
class Procedure_5c2303f5
class Procedure_683bbb4f
class Procedure_77ae9d73
class Procedure_7c161400
class Procedure_912bb230
class Procedure_e8bf4589
class Procedure_fcde288a
CarePlan_4b7859e5 -------------------------> Patient_36de99d8
CarePlan_4b7859e5 -------------------------> Encounter_e000be6d
CarePlan_4b7859e5 -------------------------> CareTeam_3afaa94d
CarePlan_4b7859e5 -------------------------> Condition_ded95588
CarePlan_4c2b1d35 -------------------------> Patient_36de99d8
CarePlan_4c2b1d35 -------------------------> Encounter_d341db6d
CarePlan_4c2b1d35 -------------------------> CareTeam_f68d4d34
CarePlan_4c2b1d35 -------------------------> Condition_4be07c8b
CarePlan_7f29eb3e -------------------------> Patient_36de99d8
CarePlan_7f29eb3e -------------------------> Encounter_00cefb53
CarePlan_7f29eb3e -------------------------> CareTeam_730e97bc
CarePlan_7f29eb3e -------------------------> Condition_7f11693d
CarePlan_a6742e15 -------------------------> Patient_36de99d8
CarePlan_a6742e15 -------------------------> Encounter_e31fe8bd
CarePlan_a6742e15 -------------------------> CareTeam_c185729a
CarePlan_a6742e15 -------------------------> Condition_98b45844
CarePlan_cf7e5724 -------------------------> Patient_36de99d8
CarePlan_cf7e5724 -------------------------> Encounter_e31fe8bd
CarePlan_cf7e5724 -------------------------> CareTeam_fc1863a5
CarePlan_cf7e5724 -------------------------> Condition_53aee5f8
CareTeam_3afaa94d -------------------------> Patient_36de99d8
CareTeam_3afaa94d -------------------------> Encounter_e000be6d
CareTeam_3afaa94d -------------------------> Patient_36de99d8
CareTeam_3afaa94d -------------------------> Practitioner_c0f93127
CareTeam_3afaa94d -------------------------> Organization_ef6ab57c
CareTeam_3afaa94d -------------------------> Organization_ef6ab57c
CareTeam_730e97bc -------------------------> Patient_36de99d8
CareTeam_730e97bc -------------------------> Encounter_00cefb53
CareTeam_730e97bc -------------------------> Patient_36de99d8
CareTeam_730e97bc -------------------------> Practitioner_c0f93127
CareTeam_730e97bc -------------------------> Organization_ef6ab57c
CareTeam_730e97bc -------------------------> Organization_ef6ab57c
CareTeam_c185729a -------------------------> Patient_36de99d8
CareTeam_c185729a -------------------------> Encounter_e31fe8bd
CareTeam_c185729a -------------------------> Patient_36de99d8
CareTeam_c185729a -------------------------> Practitioner_c0f93127
CareTeam_c185729a -------------------------> Organization_ef6ab57c
CareTeam_c185729a -------------------------> Organization_ef6ab57c
CareTeam_f68d4d34 -------------------------> Patient_36de99d8
CareTeam_f68d4d34 -------------------------> Encounter_d341db6d
CareTeam_f68d4d34 -------------------------> Patient_36de99d8
CareTeam_f68d4d34 -------------------------> Practitioner_c0f93127
CareTeam_f68d4d34 -------------------------> Organization_ef6ab57c
CareTeam_f68d4d34 -------------------------> Organization_ef6ab57c
CareTeam_fc1863a5 -------------------------> Patient_36de99d8
CareTeam_fc1863a5 -------------------------> Encounter_e31fe8bd
CareTeam_fc1863a5 -------------------------> Patient_36de99d8
CareTeam_fc1863a5 -------------------------> Practitioner_c0f93127
CareTeam_fc1863a5 -------------------------> Organization_ef6ab57c
CareTeam_fc1863a5 -------------------------> Organization_ef6ab57c
Claim_0c33ca26 -------------------------> Patient_36de99d8
Claim_0c33ca26 -------------------------> Organization_ef6ab57c
Claim_0c33ca26 -------------------------> Condition_c01a85ae
Claim_0c33ca26 -------------------------> Condition_11e684a0
Claim_0c33ca26 -------------------------> Condition_9bd1a064
Claim_0c33ca26 -------------------------> Condition_ce4d7417
Claim_0c33ca26 -------------------------> Condition_0dc9e8de
Claim_0c33ca26 -------------------------> Condition_fcdc4ad2
Claim_0c33ca26 -------------------------> Condition_ef8e393a
Claim_0c33ca26 -------------------------> Condition_53aee5f8
Claim_0c33ca26 -------------------------> Condition_98b45844
Claim_0c33ca26 -------------------------> Procedure_912bb230
Claim_0c33ca26 -------------------------> Encounter_e31fe8bd
Claim_314dd20b -------------------------> Patient_36de99d8
Claim_314dd20b -------------------------> Organization_ef6ab57c
Claim_314dd20b -------------------------> Condition_7f11693d
Claim_314dd20b -------------------------> Encounter_00cefb53
Claim_3d421296 -------------------------> Patient_36de99d8
Claim_3d421296 -------------------------> Organization_4efb4d4a
Claim_3d421296 -------------------------> Immunization_aa5e30c1
Claim_3d421296 -------------------------> Immunization_cb354577
Claim_3d421296 -------------------------> Encounter_f8da79d6
Claim_52bce81b -------------------------> Patient_36de99d8
Claim_52bce81b -------------------------> Organization_ef6ab57c
Claim_52bce81b -------------------------> MedicationRequest_f64b65d2
Claim_52bce81b -------------------------> Encounter_3c1da3df
Claim_55a6278f -------------------------> Patient_36de99d8
Claim_55a6278f -------------------------> Organization_ef6ab57c
Claim_55a6278f -------------------------> Encounter_df80c773
Claim_56d7efdd -------------------------> Patient_36de99d8
Claim_56d7efdd -------------------------> Organization_ef6ab57c
Claim_56d7efdd -------------------------> Condition_1883ea9e
Claim_56d7efdd -------------------------> Procedure_7c161400
Claim_56d7efdd -------------------------> Encounter_3c1da3df
Claim_6848bef3 -------------------------> Patient_36de99d8
Claim_6848bef3 -------------------------> Organization_ef6ab57c
Claim_6848bef3 -------------------------> Condition_4484e6d3
Claim_6848bef3 -------------------------> Encounter_0ce1ede0
Claim_7160f633 -------------------------> Patient_36de99d8
Claim_7160f633 -------------------------> Organization_ef6ab57c
Claim_7160f633 -------------------------> Encounter_5173ce09
Claim_729086f2 -------------------------> Patient_36de99d8
Claim_729086f2 -------------------------> Organization_ef6ab57c
Claim_729086f2 -------------------------> MedicationRequest_8649eb1b
Claim_729086f2 -------------------------> Encounter_d341db6d
Claim_741db5a8 -------------------------> Patient_36de99d8
Claim_741db5a8 -------------------------> Organization_ef6ab57c
Claim_741db5a8 -------------------------> Immunization_5eda2868
Claim_741db5a8 -------------------------> Encounter_bcdd7b0f
Claim_84230ca6 -------------------------> Patient_36de99d8
Claim_84230ca6 -------------------------> Organization_ef6ab57c
Claim_84230ca6 -------------------------> Condition_ded95588
Claim_84230ca6 -------------------------> Encounter_e000be6d
Claim_89ecebb2 -------------------------> Patient_36de99d8
Claim_89ecebb2 -------------------------> Organization_ef6ab57c
Claim_89ecebb2 -------------------------> Condition_4be07c8b
Claim_89ecebb2 -------------------------> Procedure_683bbb4f
Claim_89ecebb2 -------------------------> Procedure_2d4eb209
Claim_89ecebb2 -------------------------> Encounter_d341db6d
Claim_9295f4cb -------------------------> Patient_36de99d8
Claim_9295f4cb -------------------------> Organization_ef6ab57c
Claim_9295f4cb -------------------------> MedicationRequest_2f2c53ef
Claim_9295f4cb -------------------------> Encounter_5173ce09
Claim_a62f35af -------------------------> Patient_36de99d8
Claim_a62f35af -------------------------> Organization_ef6ab57c
Claim_a62f35af -------------------------> Encounter_19306858
Claim_a70b6446 -------------------------> Patient_36de99d8
Claim_a70b6446 -------------------------> Organization_ef6ab57c
Claim_a70b6446 -------------------------> Encounter_a9bc996a
Claim_b0c7c1e9 -------------------------> Patient_36de99d8
Claim_b0c7c1e9 -------------------------> Organization_ef6ab57c
Claim_b0c7c1e9 -------------------------> MedicationRequest_2a68537b
Claim_b0c7c1e9 -------------------------> Encounter_a9bc996a
Claim_b8903313 -------------------------> Patient_36de99d8
Claim_b8903313 -------------------------> Organization_ef6ab57c
Claim_b8903313 -------------------------> Condition_7b9ede4c
Claim_b8903313 -------------------------> Condition_d431a1bf
Claim_b8903313 -------------------------> Procedure_fcde288a
Claim_b8903313 -------------------------> Encounter_97027fee
Claim_ba2673ba -------------------------> Patient_36de99d8
Claim_ba2673ba -------------------------> Organization_4efb4d4a
Claim_ba2673ba -------------------------> Immunization_a98697be
Claim_ba2673ba -------------------------> Immunization_d4bc31ea
Claim_ba2673ba -------------------------> Encounter_3f215624
Claim_bbfabcfb -------------------------> Patient_36de99d8
Claim_bbfabcfb -------------------------> Organization_ef6ab57c
Claim_bbfabcfb -------------------------> Immunization_0135b97f
Claim_bbfabcfb -------------------------> Encounter_1a7bb029
Claim_c8e0a39a -------------------------> Patient_36de99d8
Claim_c8e0a39a -------------------------> Organization_ef6ab57c
Claim_c8e0a39a -------------------------> Immunization_4dc0a58b
Claim_c8e0a39a -------------------------> Encounter_194154a9
Claim_cb1e727a -------------------------> Patient_36de99d8
Claim_cb1e727a -------------------------> Organization_0c127383
Claim_cb1e727a -------------------------> Immunization_45ef3707
Claim_cb1e727a -------------------------> Encounter_efc97ece
Claim_daac21d1 -------------------------> Patient_36de99d8
Claim_daac21d1 -------------------------> Organization_ef6ab57c
Claim_daac21d1 -------------------------> Condition_43aad50a
Claim_daac21d1 -------------------------> Procedure_e8bf4589
Claim_daac21d1 -------------------------> Encounter_e5056c79
Claim_e8fd9cfb -------------------------> Patient_36de99d8
Claim_e8fd9cfb -------------------------> Organization_ef6ab57c
Claim_e8fd9cfb -------------------------> MedicationRequest_a3494544
Claim_e8fd9cfb -------------------------> Encounter_5173ce09
Claim_ee6dbf91 -------------------------> Patient_36de99d8
Claim_ee6dbf91 -------------------------> Organization_4efb4d4a
Claim_ee6dbf91 -------------------------> Immunization_65eda260
Claim_ee6dbf91 -------------------------> Procedure_77ae9d73
Claim_ee6dbf91 -------------------------> Encounter_8763caae
Claim_f657fb2c -------------------------> Patient_36de99d8
Claim_f657fb2c -------------------------> Organization_4efb4d4a
Claim_f657fb2c -------------------------> Immunization_b1eddeb9
Claim_f657fb2c -------------------------> Procedure_5c2303f5
Claim_f657fb2c -------------------------> Encounter_78bbe8d2
Claim_f76a6d51 -------------------------> Patient_36de99d8
Claim_f76a6d51 -------------------------> Organization_ef6ab57c
Claim_f76a6d51 -------------------------> MedicationRequest_dc17668d
Claim_f76a6d51 -------------------------> Encounter_a9bc996a
Condition_0dc9e8de -------------------------> Patient_36de99d8
Condition_0dc9e8de -------------------------> Encounter_e31fe8bd
Condition_11e684a0 -------------------------> Patient_36de99d8
Condition_11e684a0 -------------------------> Encounter_e31fe8bd
Condition_1883ea9e -------------------------> Patient_36de99d8
Condition_1883ea9e -------------------------> Encounter_3c1da3df
Condition_43aad50a -------------------------> Patient_36de99d8
Condition_43aad50a -------------------------> Encounter_e5056c79
Condition_4484e6d3 -------------------------> Patient_36de99d8
Condition_4484e6d3 -------------------------> Encounter_0ce1ede0
Condition_4be07c8b -------------------------> Patient_36de99d8
Condition_4be07c8b -------------------------> Encounter_d341db6d
Condition_53aee5f8 -------------------------> Patient_36de99d8
Condition_53aee5f8 -------------------------> Encounter_e31fe8bd
Condition_7b9ede4c -------------------------> Patient_36de99d8
Condition_7b9ede4c -------------------------> Encounter_97027fee
Condition_7f11693d -------------------------> Patient_36de99d8
Condition_7f11693d -------------------------> Encounter_00cefb53
Condition_98b45844 -------------------------> Patient_36de99d8
Condition_98b45844 -------------------------> Encounter_e31fe8bd
Condition_9bd1a064 -------------------------> Patient_36de99d8
Condition_9bd1a064 -------------------------> Encounter_e31fe8bd
Condition_c01a85ae -------------------------> Patient_36de99d8
Condition_c01a85ae -------------------------> Encounter_e31fe8bd
Condition_ce4d7417 -------------------------> Patient_36de99d8
Condition_ce4d7417 -------------------------> Encounter_e31fe8bd
Condition_d431a1bf -------------------------> Patient_36de99d8
Condition_d431a1bf -------------------------> Encounter_97027fee
Condition_ded95588 -------------------------> Patient_36de99d8
Condition_ded95588 -------------------------> Encounter_e000be6d
Condition_ef8e393a -------------------------> Patient_36de99d8
Condition_ef8e393a -------------------------> Encounter_e31fe8bd
Condition_fcdc4ad2 -------------------------> Patient_36de99d8
Condition_fcdc4ad2 -------------------------> Encounter_e31fe8bd
DiagnosticReport_18de628e -------------------------> Patient_36de99d8
DiagnosticReport_18de628e -------------------------> Encounter_e31fe8bd
DiagnosticReport_18de628e -------------------------> Observation_2675dc5e
DiagnosticReport_18de628e -------------------------> Observation_54e11804
DiagnosticReport_5b3b009f -------------------------> Patient_36de99d8
DiagnosticReport_5b3b009f -------------------------> Encounter_78bbe8d2
DiagnosticReport_5b3b009f -------------------------> Observation_43fbecc3
DiagnosticReport_5b3b009f -------------------------> Observation_f49b5b78
DiagnosticReport_5b3b009f -------------------------> Observation_cd950ffa
DiagnosticReport_5b3b009f -------------------------> Observation_be28b28c
DiagnosticReport_5b3b009f -------------------------> Observation_61967a06
DiagnosticReport_5b3b009f -------------------------> Observation_6182b255
DiagnosticReport_5b3b009f -------------------------> Observation_f566b629
DiagnosticReport_5b3b009f -------------------------> Observation_dcab4fe6
DiagnosticReport_5b3b009f -------------------------> Observation_da53b5e0
DiagnosticReport_5b3b009f -------------------------> Observation_e3df95c3
DiagnosticReport_5b3b009f -------------------------> Observation_047de357
DiagnosticReport_a61312d8 -------------------------> Patient_36de99d8
DiagnosticReport_a61312d8 -------------------------> Encounter_f8da79d6
DiagnosticReport_a61312d8 -------------------------> Observation_29e15a91
DiagnosticReport_a61312d8 -------------------------> Observation_549a2686
DiagnosticReport_a61312d8 -------------------------> Observation_5d7466c6
DiagnosticReport_a61312d8 -------------------------> Observation_4bbbe87c
DiagnosticReport_bc4af3ad -------------------------> Patient_36de99d8
DiagnosticReport_bc4af3ad -------------------------> Encounter_8763caae
DiagnosticReport_bc4af3ad -------------------------> Observation_b2c26e0f
DiagnosticReport_bc4af3ad -------------------------> Observation_98bd2823
DiagnosticReport_bc4af3ad -------------------------> Observation_45a14a01
DiagnosticReport_bc4af3ad -------------------------> Observation_fa11eba1
DiagnosticReport_be6a0e03 -------------------------> Patient_36de99d8
DiagnosticReport_be6a0e03 -------------------------> Encounter_e5056c79
DiagnosticReport_be6a0e03 -------------------------> Observation_b3eafcce
DiagnosticReport_be6a0e03 -------------------------> Observation_ee5a0d4e
DiagnosticReport_be6a0e03 -------------------------> Observation_86e8a1dc
DiagnosticReport_be6a0e03 -------------------------> Observation_b2add72f
DiagnosticReport_be6a0e03 -------------------------> Observation_7111281a
DiagnosticReport_be6a0e03 -------------------------> Observation_9b2b6c04
DiagnosticReport_be6a0e03 -------------------------> Observation_8f94c891
DiagnosticReport_be6a0e03 -------------------------> Observation_3eb38a9f
DiagnosticReport_be6a0e03 -------------------------> Observation_f46b1a77
DiagnosticReport_be6a0e03 -------------------------> Observation_ce497f44
DiagnosticReport_be6a0e03 -------------------------> Observation_fc4525be
DiagnosticReport_e82c9aa7 -------------------------> Patient_36de99d8
DiagnosticReport_e82c9aa7 -------------------------> Encounter_e31fe8bd
DiagnosticReport_e82c9aa7 -------------------------> Observation_5480cc93
DiagnosticReport_f772eacd -------------------------> Patient_36de99d8
DiagnosticReport_f772eacd -------------------------> Encounter_78bbe8d2
DiagnosticReport_f772eacd -------------------------> Observation_18f98db2
DiagnosticReport_f772eacd -------------------------> Observation_41f58f79
DiagnosticReport_f772eacd -------------------------> Observation_c3d6a8c9
DiagnosticReport_f772eacd -------------------------> Observation_6c9ce2ff
Encounter_00cefb53 -------------------------> Patient_36de99d8
Encounter_00cefb53 -------------------------> Practitioner_c0f93127
Encounter_00cefb53 -------------------------> Organization_ef6ab57c
Encounter_0ce1ede0 -------------------------> Patient_36de99d8
Encounter_0ce1ede0 -------------------------> Practitioner_c0f93127
Encounter_0ce1ede0 -------------------------> Organization_ef6ab57c
Encounter_19306858 -------------------------> Patient_36de99d8
Encounter_19306858 -------------------------> Practitioner_c0f93127
Encounter_19306858 -------------------------> Organization_ef6ab57c
Encounter_194154a9 -------------------------> Patient_36de99d8
Encounter_194154a9 -------------------------> Practitioner_c0f93127
Encounter_194154a9 -------------------------> Organization_ef6ab57c
Encounter_1a7bb029 -------------------------> Patient_36de99d8
Encounter_1a7bb029 -------------------------> Practitioner_c0f93127
Encounter_1a7bb029 -------------------------> Organization_ef6ab57c
Encounter_3c1da3df -------------------------> Patient_36de99d8
Encounter_3c1da3df -------------------------> Practitioner_c0f93127
Encounter_3c1da3df -------------------------> Organization_ef6ab57c
Encounter_3f215624 -------------------------> Patient_36de99d8
Encounter_3f215624 -------------------------> Practitioner_7f34135f
Encounter_3f215624 -------------------------> Organization_4efb4d4a
Encounter_5173ce09 -------------------------> Patient_36de99d8
Encounter_5173ce09 -------------------------> Practitioner_c0f93127
Encounter_5173ce09 -------------------------> Organization_ef6ab57c
Encounter_78bbe8d2 -------------------------> Patient_36de99d8
Encounter_78bbe8d2 -------------------------> Practitioner_7f34135f
Encounter_78bbe8d2 -------------------------> Organization_4efb4d4a
Encounter_8763caae -------------------------> Patient_36de99d8
Encounter_8763caae -------------------------> Practitioner_7f34135f
Encounter_8763caae -------------------------> Organization_4efb4d4a
Encounter_97027fee -------------------------> Patient_36de99d8
Encounter_97027fee -------------------------> Practitioner_c0f93127
Encounter_97027fee -------------------------> Organization_ef6ab57c
Encounter_a9bc996a -------------------------> Patient_36de99d8
Encounter_a9bc996a -------------------------> Practitioner_c0f93127
Encounter_a9bc996a -------------------------> Organization_ef6ab57c
Encounter_bcdd7b0f -------------------------> Patient_36de99d8
Encounter_bcdd7b0f -------------------------> Practitioner_c0f93127
Encounter_bcdd7b0f -------------------------> Organization_ef6ab57c
Encounter_d341db6d -------------------------> Patient_36de99d8
Encounter_d341db6d -------------------------> Practitioner_c0f93127
Encounter_d341db6d -------------------------> Organization_ef6ab57c
Encounter_df80c773 -------------------------> Patient_36de99d8
Encounter_df80c773 -------------------------> Practitioner_c0f93127
Encounter_df80c773 -------------------------> Organization_ef6ab57c
Encounter_e000be6d -------------------------> Patient_36de99d8
Encounter_e000be6d -------------------------> Practitioner_c0f93127
Encounter_e000be6d -------------------------> Organization_ef6ab57c
Encounter_e31fe8bd -------------------------> Patient_36de99d8
Encounter_e31fe8bd -------------------------> Practitioner_c0f93127
Encounter_e31fe8bd -------------------------> Organization_ef6ab57c
Encounter_e5056c79 -------------------------> Patient_36de99d8
Encounter_e5056c79 -------------------------> Practitioner_c0f93127
Encounter_e5056c79 -------------------------> Organization_ef6ab57c
Encounter_efc97ece -------------------------> Patient_36de99d8
Encounter_efc97ece -------------------------> Practitioner_3cfe5647
Encounter_efc97ece -------------------------> Organization_0c127383
Encounter_f8da79d6 -------------------------> Patient_36de99d8
Encounter_f8da79d6 -------------------------> Practitioner_7f34135f
Encounter_f8da79d6 -------------------------> Organization_4efb4d4a
ExplanationOfBenefit_00f9f13c -------------------------> Patient_36de99d8
ExplanationOfBenefit_00f9f13c -------------------------> Practitioner_c0f93127
ExplanationOfBenefit_00f9f13c -------------------------> Practitioner_c0f93127
ExplanationOfBenefit_00f9f13c -------------------------> Patient_36de99d8
ExplanationOfBenefit_00f9f13c -------------------------> Patient_36de99d8
ExplanationOfBenefit_00f9f13c -------------------------> Practitioner_c0f93127
ExplanationOfBenefit_00f9f13c -------------------------> Claim_b8903313
ExplanationOfBenefit_00f9f13c -------------------------> Practitioner_c0f93127
ExplanationOfBenefit_00f9f13c -------------------------> Condition_7b9ede4c
ExplanationOfBenefit_00f9f13c -------------------------> Condition_d431a1bf
ExplanationOfBenefit_00f9f13c -------------------------> Encounter_97027fee
ExplanationOfBenefit_0cb06cf0 -------------------------> Patient_36de99d8
ExplanationOfBenefit_0cb06cf0 -------------------------> Practitioner_7f34135f
ExplanationOfBenefit_0cb06cf0 -------------------------> Practitioner_7f34135f
ExplanationOfBenefit_0cb06cf0 -------------------------> Patient_36de99d8
ExplanationOfBenefit_0cb06cf0 -------------------------> Patient_36de99d8
ExplanationOfBenefit_0cb06cf0 -------------------------> Practitioner_7f34135f
ExplanationOfBenefit_0cb06cf0 -------------------------> Claim_ba2673ba
ExplanationOfBenefit_0cb06cf0 -------------------------> Practitioner_7f34135f
ExplanationOfBenefit_0cb06cf0 -------------------------> Encounter_3f215624
ExplanationOfBenefit_34e8b4d9 -------------------------> Patient_36de99d8
ExplanationOfBenefit_34e8b4d9 -------------------------> Practitioner_7f34135f
ExplanationOfBenefit_34e8b4d9 -------------------------> Practitioner_7f34135f
ExplanationOfBenefit_34e8b4d9 -------------------------> Patient_36de99d8
ExplanationOfBenefit_34e8b4d9 -------------------------> Patient_36de99d8
ExplanationOfBenefit_34e8b4d9 -------------------------> Practitioner_7f34135f
ExplanationOfBenefit_34e8b4d9 -------------------------> Claim_3d421296
ExplanationOfBenefit_34e8b4d9 -------------------------> Practitioner_7f34135f
ExplanationOfBenefit_34e8b4d9 -------------------------> Encounter_f8da79d6
ExplanationOfBenefit_37958d6c -------------------------> Patient_36de99d8
ExplanationOfBenefit_37958d6c -------------------------> Practitioner_7f34135f
ExplanationOfBenefit_37958d6c -------------------------> Practitioner_7f34135f
ExplanationOfBenefit_37958d6c -------------------------> Patient_36de99d8
ExplanationOfBenefit_37958d6c -------------------------> Patient_36de99d8
ExplanationOfBenefit_37958d6c -------------------------> Practitioner_7f34135f
ExplanationOfBenefit_37958d6c -------------------------> Claim_f657fb2c
ExplanationOfBenefit_37958d6c -------------------------> Practitioner_7f34135f
ExplanationOfBenefit_37958d6c -------------------------> Encounter_78bbe8d2
ExplanationOfBenefit_4f3570a5 -------------------------> Patient_36de99d8
ExplanationOfBenefit_4f3570a5 -------------------------> Practitioner_c0f93127
ExplanationOfBenefit_4f3570a5 -------------------------> Practitioner_c0f93127
ExplanationOfBenefit_4f3570a5 -------------------------> Patient_36de99d8
ExplanationOfBenefit_4f3570a5 -------------------------> Patient_36de99d8
ExplanationOfBenefit_4f3570a5 -------------------------> Practitioner_c0f93127
ExplanationOfBenefit_4f3570a5 -------------------------> Claim_c8e0a39a
ExplanationOfBenefit_4f3570a5 -------------------------> Practitioner_c0f93127
ExplanationOfBenefit_4f3570a5 -------------------------> Encounter_194154a9
ExplanationOfBenefit_52e6091c -------------------------> Patient_36de99d8
ExplanationOfBenefit_52e6091c -------------------------> Practitioner_c0f93127
ExplanationOfBenefit_52e6091c -------------------------> Practitioner_c0f93127
ExplanationOfBenefit_52e6091c -------------------------> Patient_36de99d8
ExplanationOfBenefit_52e6091c -------------------------> Patient_36de99d8
ExplanationOfBenefit_52e6091c -------------------------> Practitioner_c0f93127
ExplanationOfBenefit_52e6091c -------------------------> Claim_0c33ca26
ExplanationOfBenefit_52e6091c -------------------------> Practitioner_c0f93127
ExplanationOfBenefit_52e6091c -------------------------> Condition_c01a85ae
ExplanationOfBenefit_52e6091c -------------------------> Condition_11e684a0
ExplanationOfBenefit_52e6091c -------------------------> Condition_9bd1a064
ExplanationOfBenefit_52e6091c -------------------------> Condition_ce4d7417
ExplanationOfBenefit_52e6091c -------------------------> Condition_0dc9e8de
ExplanationOfBenefit_52e6091c -------------------------> Condition_fcdc4ad2
ExplanationOfBenefit_52e6091c -------------------------> Condition_ef8e393a
ExplanationOfBenefit_52e6091c -------------------------> Condition_53aee5f8
ExplanationOfBenefit_52e6091c -------------------------> Condition_98b45844
ExplanationOfBenefit_52e6091c -------------------------> Encounter_e31fe8bd
ExplanationOfBenefit_53481885 -------------------------> Patient_36de99d8
ExplanationOfBenefit_53481885 -------------------------> Practitioner_c0f93127
ExplanationOfBenefit_53481885 -------------------------> Practitioner_c0f93127
ExplanationOfBenefit_53481885 -------------------------> Patient_36de99d8
ExplanationOfBenefit_53481885 -------------------------> Patient_36de99d8
ExplanationOfBenefit_53481885 -------------------------> Practitioner_c0f93127
ExplanationOfBenefit_53481885 -------------------------> Claim_56d7efdd
ExplanationOfBenefit_53481885 -------------------------> Practitioner_c0f93127
ExplanationOfBenefit_53481885 -------------------------> Condition_1883ea9e
ExplanationOfBenefit_53481885 -------------------------> Encounter_3c1da3df
ExplanationOfBenefit_57c24279 -------------------------> Patient_36de99d8
ExplanationOfBenefit_57c24279 -------------------------> Practitioner_c0f93127
ExplanationOfBenefit_57c24279 -------------------------> Practitioner_c0f93127
ExplanationOfBenefit_57c24279 -------------------------> Patient_36de99d8
ExplanationOfBenefit_57c24279 -------------------------> Patient_36de99d8
ExplanationOfBenefit_57c24279 -------------------------> Practitioner_c0f93127
ExplanationOfBenefit_57c24279 -------------------------> Claim_314dd20b
ExplanationOfBenefit_57c24279 -------------------------> Practitioner_c0f93127
ExplanationOfBenefit_57c24279 -------------------------> Condition_7f11693d
ExplanationOfBenefit_57c24279 -------------------------> Encounter_00cefb53
ExplanationOfBenefit_5ab8bf02 -------------------------> Patient_36de99d8
ExplanationOfBenefit_5ab8bf02 -------------------------> Practitioner_c0f93127
ExplanationOfBenefit_5ab8bf02 -------------------------> Practitioner_c0f93127
ExplanationOfBenefit_5ab8bf02 -------------------------> Patient_36de99d8
ExplanationOfBenefit_5ab8bf02 -------------------------> Patient_36de99d8
ExplanationOfBenefit_5ab8bf02 -------------------------> Practitioner_c0f93127
ExplanationOfBenefit_5ab8bf02 -------------------------> Claim_a70b6446
ExplanationOfBenefit_5ab8bf02 -------------------------> Practitioner_c0f93127
ExplanationOfBenefit_5ab8bf02 -------------------------> Encounter_a9bc996a
ExplanationOfBenefit_69120825 -------------------------> Patient_36de99d8
ExplanationOfBenefit_69120825 -------------------------> Practitioner_3cfe5647
ExplanationOfBenefit_69120825 -------------------------> Practitioner_3cfe5647
ExplanationOfBenefit_69120825 -------------------------> Patient_36de99d8
ExplanationOfBenefit_69120825 -------------------------> Patient_36de99d8
ExplanationOfBenefit_69120825 -------------------------> Practitioner_3cfe5647
ExplanationOfBenefit_69120825 -------------------------> Claim_cb1e727a
ExplanationOfBenefit_69120825 -------------------------> Practitioner_3cfe5647
ExplanationOfBenefit_69120825 -------------------------> Encounter_efc97ece
ExplanationOfBenefit_7e2b0fad -------------------------> Patient_36de99d8
ExplanationOfBenefit_7e2b0fad -------------------------> Practitioner_c0f93127
ExplanationOfBenefit_7e2b0fad -------------------------> Practitioner_c0f93127
ExplanationOfBenefit_7e2b0fad -------------------------> Patient_36de99d8
ExplanationOfBenefit_7e2b0fad -------------------------> Patient_36de99d8
ExplanationOfBenefit_7e2b0fad -------------------------> Practitioner_c0f93127
ExplanationOfBenefit_7e2b0fad -------------------------> Claim_bbfabcfb
ExplanationOfBenefit_7e2b0fad -------------------------> Practitioner_c0f93127
ExplanationOfBenefit_7e2b0fad -------------------------> Encounter_1a7bb029
ExplanationOfBenefit_95dd2372 -------------------------> Patient_36de99d8
ExplanationOfBenefit_95dd2372 -------------------------> Practitioner_c0f93127
ExplanationOfBenefit_95dd2372 -------------------------> Practitioner_c0f93127
ExplanationOfBenefit_95dd2372 -------------------------> Patient_36de99d8
ExplanationOfBenefit_95dd2372 -------------------------> Patient_36de99d8
ExplanationOfBenefit_95dd2372 -------------------------> Practitioner_c0f93127
ExplanationOfBenefit_95dd2372 -------------------------> Claim_6848bef3
ExplanationOfBenefit_95dd2372 -------------------------> Practitioner_c0f93127
ExplanationOfBenefit_95dd2372 -------------------------> Condition_4484e6d3
ExplanationOfBenefit_95dd2372 -------------------------> Encounter_0ce1ede0
ExplanationOfBenefit_98f9306f -------------------------> Patient_36de99d8
ExplanationOfBenefit_98f9306f -------------------------> Practitioner_c0f93127
ExplanationOfBenefit_98f9306f -------------------------> Practitioner_c0f93127
ExplanationOfBenefit_98f9306f -------------------------> Patient_36de99d8
ExplanationOfBenefit_98f9306f -------------------------> Patient_36de99d8
ExplanationOfBenefit_98f9306f -------------------------> Practitioner_c0f93127
ExplanationOfBenefit_98f9306f -------------------------> Claim_7160f633
ExplanationOfBenefit_98f9306f -------------------------> Practitioner_c0f93127
ExplanationOfBenefit_98f9306f -------------------------> Encounter_5173ce09
ExplanationOfBenefit_a2c3194f -------------------------> Patient_36de99d8
ExplanationOfBenefit_a2c3194f -------------------------> Practitioner_c0f93127
ExplanationOfBenefit_a2c3194f -------------------------> Practitioner_c0f93127
ExplanationOfBenefit_a2c3194f -------------------------> Patient_36de99d8
ExplanationOfBenefit_a2c3194f -------------------------> Patient_36de99d8
ExplanationOfBenefit_a2c3194f -------------------------> Practitioner_c0f93127
ExplanationOfBenefit_a2c3194f -------------------------> Claim_741db5a8
ExplanationOfBenefit_a2c3194f -------------------------> Practitioner_c0f93127
ExplanationOfBenefit_a2c3194f -------------------------> Encounter_bcdd7b0f
ExplanationOfBenefit_b83bcaa9 -------------------------> Patient_36de99d8
ExplanationOfBenefit_b83bcaa9 -------------------------> Practitioner_c0f93127
ExplanationOfBenefit_b83bcaa9 -------------------------> Practitioner_c0f93127
ExplanationOfBenefit_b83bcaa9 -------------------------> Patient_36de99d8
ExplanationOfBenefit_b83bcaa9 -------------------------> Patient_36de99d8
ExplanationOfBenefit_b83bcaa9 -------------------------> Practitioner_c0f93127
ExplanationOfBenefit_b83bcaa9 -------------------------> Claim_a62f35af
ExplanationOfBenefit_b83bcaa9 -------------------------> Practitioner_c0f93127
ExplanationOfBenefit_b83bcaa9 -------------------------> Encounter_19306858
ExplanationOfBenefit_c5bc1811 -------------------------> Patient_36de99d8
ExplanationOfBenefit_c5bc1811 -------------------------> Practitioner_7f34135f
ExplanationOfBenefit_c5bc1811 -------------------------> Practitioner_7f34135f
ExplanationOfBenefit_c5bc1811 -------------------------> Patient_36de99d8
ExplanationOfBenefit_c5bc1811 -------------------------> Patient_36de99d8
ExplanationOfBenefit_c5bc1811 -------------------------> Practitioner_7f34135f
ExplanationOfBenefit_c5bc1811 -------------------------> Claim_ee6dbf91
ExplanationOfBenefit_c5bc1811 -------------------------> Practitioner_7f34135f
ExplanationOfBenefit_c5bc1811 -------------------------> Encounter_8763caae
ExplanationOfBenefit_cc2e8237 -------------------------> Patient_36de99d8
ExplanationOfBenefit_cc2e8237 -------------------------> Practitioner_c0f93127
ExplanationOfBenefit_cc2e8237 -------------------------> Practitioner_c0f93127
ExplanationOfBenefit_cc2e8237 -------------------------> Patient_36de99d8
ExplanationOfBenefit_cc2e8237 -------------------------> Patient_36de99d8
ExplanationOfBenefit_cc2e8237 -------------------------> Practitioner_c0f93127
ExplanationOfBenefit_cc2e8237 -------------------------> Claim_84230ca6
ExplanationOfBenefit_cc2e8237 -------------------------> Practitioner_c0f93127
ExplanationOfBenefit_cc2e8237 -------------------------> Condition_ded95588
ExplanationOfBenefit_cc2e8237 -------------------------> Encounter_e000be6d
ExplanationOfBenefit_d62744a7 -------------------------> Patient_36de99d8
ExplanationOfBenefit_d62744a7 -------------------------> Practitioner_c0f93127
ExplanationOfBenefit_d62744a7 -------------------------> Practitioner_c0f93127
ExplanationOfBenefit_d62744a7 -------------------------> Patient_36de99d8
ExplanationOfBenefit_d62744a7 -------------------------> Patient_36de99d8
ExplanationOfBenefit_d62744a7 -------------------------> Practitioner_c0f93127
ExplanationOfBenefit_d62744a7 -------------------------> Claim_55a6278f
ExplanationOfBenefit_d62744a7 -------------------------> Practitioner_c0f93127
ExplanationOfBenefit_d62744a7 -------------------------> Encounter_df80c773
ExplanationOfBenefit_ebef18d8 -------------------------> Patient_36de99d8
ExplanationOfBenefit_ebef18d8 -------------------------> Practitioner_c0f93127
ExplanationOfBenefit_ebef18d8 -------------------------> Practitioner_c0f93127
ExplanationOfBenefit_ebef18d8 -------------------------> Patient_36de99d8
ExplanationOfBenefit_ebef18d8 -------------------------> Patient_36de99d8
ExplanationOfBenefit_ebef18d8 -------------------------> Practitioner_c0f93127
ExplanationOfBenefit_ebef18d8 -------------------------> Claim_89ecebb2
ExplanationOfBenefit_ebef18d8 -------------------------> Practitioner_c0f93127
ExplanationOfBenefit_ebef18d8 -------------------------> Condition_4be07c8b
ExplanationOfBenefit_ebef18d8 -------------------------> Encounter_d341db6d
ExplanationOfBenefit_f5eaed47 -------------------------> Patient_36de99d8
ExplanationOfBenefit_f5eaed47 -------------------------> Practitioner_c0f93127
ExplanationOfBenefit_f5eaed47 -------------------------> Practitioner_c0f93127
ExplanationOfBenefit_f5eaed47 -------------------------> Patient_36de99d8
ExplanationOfBenefit_f5eaed47 -------------------------> Patient_36de99d8
ExplanationOfBenefit_f5eaed47 -------------------------> Practitioner_c0f93127
ExplanationOfBenefit_f5eaed47 -------------------------> Claim_daac21d1
ExplanationOfBenefit_f5eaed47 -------------------------> Practitioner_c0f93127
ExplanationOfBenefit_f5eaed47 -------------------------> Condition_43aad50a
ExplanationOfBenefit_f5eaed47 -------------------------> Encounter_e5056c79
ImagingStudy_0c7f71af -------------------------> Patient_36de99d8
ImagingStudy_0c7f71af -------------------------> Encounter_d341db6d
Immunization_0135b97f -------------------------> Patient_36de99d8
Immunization_0135b97f -------------------------> Encounter_1a7bb029
Immunization_45ef3707 -------------------------> Patient_36de99d8
Immunization_45ef3707 -------------------------> Encounter_efc97ece
Immunization_4dc0a58b -------------------------> Patient_36de99d8
Immunization_4dc0a58b -------------------------> Encounter_194154a9
Immunization_5eda2868 -------------------------> Patient_36de99d8
Immunization_5eda2868 -------------------------> Encounter_bcdd7b0f
Immunization_65eda260 -------------------------> Patient_36de99d8
Immunization_65eda260 -------------------------> Encounter_8763caae
Immunization_a98697be -------------------------> Patient_36de99d8
Immunization_a98697be -------------------------> Encounter_3f215624
Immunization_aa5e30c1 -------------------------> Patient_36de99d8
Immunization_aa5e30c1 -------------------------> Encounter_f8da79d6
Immunization_b1eddeb9 -------------------------> Patient_36de99d8
Immunization_b1eddeb9 -------------------------> Encounter_78bbe8d2
Immunization_cb354577 -------------------------> Patient_36de99d8
Immunization_cb354577 -------------------------> Encounter_f8da79d6
Immunization_d4bc31ea -------------------------> Patient_36de99d8
Immunization_d4bc31ea -------------------------> Encounter_3f215624
MedicationRequest_2a68537b -------------------------> Patient_36de99d8
MedicationRequest_2a68537b -------------------------> Encounter_a9bc996a
MedicationRequest_2a68537b -------------------------> Practitioner_c0f93127
MedicationRequest_2a68537b -------------------------> Condition_ded95588
MedicationRequest_2f2c53ef -------------------------> Patient_36de99d8
MedicationRequest_2f2c53ef -------------------------> Encounter_5173ce09
MedicationRequest_2f2c53ef -------------------------> Practitioner_c0f93127
MedicationRequest_2f2c53ef -------------------------> Condition_ded95588
MedicationRequest_8649eb1b -------------------------> Patient_36de99d8
MedicationRequest_8649eb1b -------------------------> Encounter_d341db6d
MedicationRequest_8649eb1b -------------------------> Practitioner_c0f93127
MedicationRequest_a3494544 -------------------------> Patient_36de99d8
MedicationRequest_a3494544 -------------------------> Encounter_5173ce09
MedicationRequest_a3494544 -------------------------> Practitioner_c0f93127
MedicationRequest_a3494544 -------------------------> Condition_ded95588
MedicationRequest_dc17668d -------------------------> Patient_36de99d8
MedicationRequest_dc17668d -------------------------> Encounter_a9bc996a
MedicationRequest_dc17668d -------------------------> Practitioner_c0f93127
MedicationRequest_dc17668d -------------------------> Condition_ded95588
MedicationRequest_f64b65d2 -------------------------> Patient_36de99d8
MedicationRequest_f64b65d2 -------------------------> Encounter_3c1da3df
MedicationRequest_f64b65d2 -------------------------> Practitioner_c0f93127
MedicationRequest_f64b65d2 -------------------------> Condition_1883ea9e
Observation_047de357 -------------------------> Patient_36de99d8
Observation_047de357 -------------------------> Encounter_78bbe8d2
Observation_099ef36e -------------------------> Patient_36de99d8
Observation_099ef36e -------------------------> Encounter_e5056c79
Observation_0b74d3e2 -------------------------> Patient_36de99d8
Observation_0b74d3e2 -------------------------> Encounter_78bbe8d2
Observation_13c7b593 -------------------------> Patient_36de99d8
Observation_13c7b593 -------------------------> Encounter_8763caae
Observation_151bd390 -------------------------> Patient_36de99d8
Observation_151bd390 -------------------------> Encounter_8763caae
Observation_158318c4 -------------------------> Patient_36de99d8
Observation_158318c4 -------------------------> Encounter_97027fee
Observation_15f782cd -------------------------> Patient_36de99d8
Observation_15f782cd -------------------------> Encounter_97027fee
Observation_17a207a5 -------------------------> Patient_36de99d8
Observation_17a207a5 -------------------------> Encounter_3f215624
Observation_18f98db2 -------------------------> Patient_36de99d8
Observation_18f98db2 -------------------------> Encounter_78bbe8d2
Observation_2675dc5e -------------------------> Patient_36de99d8
Observation_2675dc5e -------------------------> Encounter_e31fe8bd
Observation_29e15a91 -------------------------> Patient_36de99d8
Observation_29e15a91 -------------------------> Encounter_f8da79d6
Observation_2c97ba90 -------------------------> Patient_36de99d8
Observation_2c97ba90 -------------------------> Encounter_e5056c79
Observation_2d2b1b22 -------------------------> Patient_36de99d8
Observation_2d2b1b22 -------------------------> Encounter_97027fee
Observation_2d2eb04c -------------------------> Patient_36de99d8
Observation_2d2eb04c -------------------------> Encounter_3c1da3df
Observation_2e1d4d47 -------------------------> Patient_36de99d8
Observation_2e1d4d47 -------------------------> Encounter_0ce1ede0
Observation_2e9cea66 -------------------------> Patient_36de99d8
Observation_2e9cea66 -------------------------> Encounter_f8da79d6
Observation_2f870e05 -------------------------> Patient_36de99d8
Observation_2f870e05 -------------------------> Encounter_3f215624
Observation_35dccf88 -------------------------> Patient_36de99d8
Observation_35dccf88 -------------------------> Encounter_78bbe8d2
Observation_363ee13b -------------------------> Patient_36de99d8
Observation_363ee13b -------------------------> Encounter_97027fee
Observation_3975dabd -------------------------> Patient_36de99d8
Observation_3975dabd -------------------------> Encounter_0ce1ede0
Observation_3eb38a9f -------------------------> Patient_36de99d8
Observation_3eb38a9f -------------------------> Encounter_e5056c79
Observation_41051a88 -------------------------> Patient_36de99d8
Observation_41051a88 -------------------------> Encounter_0ce1ede0
Observation_41f58f79 -------------------------> Patient_36de99d8
Observation_41f58f79 -------------------------> Encounter_78bbe8d2
Observation_43fbecc3 -------------------------> Patient_36de99d8
Observation_43fbecc3 -------------------------> Encounter_78bbe8d2
Observation_443bfd6b -------------------------> Patient_36de99d8
Observation_443bfd6b -------------------------> Encounter_f8da79d6
Observation_45a14a01 -------------------------> Patient_36de99d8
Observation_45a14a01 -------------------------> Encounter_8763caae
Observation_4a7150bb -------------------------> Patient_36de99d8
Observation_4a7150bb -------------------------> Encounter_8763caae
Observation_4bbbe87c -------------------------> Patient_36de99d8
Observation_4bbbe87c -------------------------> Encounter_f8da79d6
Observation_4c7569ee -------------------------> Patient_36de99d8
Observation_4c7569ee -------------------------> Encounter_8763caae
Observation_4d03de2b -------------------------> Patient_36de99d8
Observation_4d03de2b -------------------------> Encounter_e5056c79
Observation_5061a69e -------------------------> Patient_36de99d8
Observation_5061a69e -------------------------> Encounter_e31fe8bd
Observation_5480cc93 -------------------------> Patient_36de99d8
Observation_5480cc93 -------------------------> Encounter_e31fe8bd
Observation_54968a29 -------------------------> Patient_36de99d8
Observation_54968a29 -------------------------> Encounter_e5056c79
Observation_549a2686 -------------------------> Patient_36de99d8
Observation_549a2686 -------------------------> Encounter_f8da79d6
Observation_54e11804 -------------------------> Patient_36de99d8
Observation_54e11804 -------------------------> Encounter_e31fe8bd
Observation_57aebc44 -------------------------> Patient_36de99d8
Observation_57aebc44 -------------------------> Encounter_78bbe8d2
Observation_59e983bb -------------------------> Patient_36de99d8
Observation_59e983bb -------------------------> Encounter_3f215624
Observation_5c32f9fe -------------------------> Patient_36de99d8
Observation_5c32f9fe -------------------------> Encounter_a9bc996a
Observation_5d7466c6 -------------------------> Patient_36de99d8
Observation_5d7466c6 -------------------------> Encounter_f8da79d6
Observation_601ef49b -------------------------> Patient_36de99d8
Observation_601ef49b -------------------------> Encounter_e31fe8bd
Observation_6182b255 -------------------------> Patient_36de99d8
Observation_6182b255 -------------------------> Encounter_78bbe8d2
Observation_61967a06 -------------------------> Patient_36de99d8
Observation_61967a06 -------------------------> Encounter_78bbe8d2
Observation_6779b60a -------------------------> Patient_36de99d8
Observation_6779b60a -------------------------> Encounter_f8da79d6
Observation_6831fb74 -------------------------> Patient_36de99d8
Observation_6831fb74 -------------------------> Encounter_f8da79d6
Observation_6b425bff -------------------------> Patient_36de99d8
Observation_6b425bff -------------------------> Encounter_e31fe8bd
Observation_6c9ce2ff -------------------------> Patient_36de99d8
Observation_6c9ce2ff -------------------------> Encounter_78bbe8d2
Observation_7111281a -------------------------> Patient_36de99d8
Observation_7111281a -------------------------> Encounter_e5056c79
Observation_719fc380 -------------------------> Patient_36de99d8
Observation_719fc380 -------------------------> Encounter_3f215624
Observation_7413c95b -------------------------> Patient_36de99d8
Observation_7413c95b -------------------------> Encounter_97027fee
Observation_767296e1 -------------------------> Patient_36de99d8
Observation_767296e1 -------------------------> Encounter_97027fee
Observation_7673c119 -------------------------> Patient_36de99d8
Observation_7673c119 -------------------------> Encounter_0ce1ede0
Observation_7a5e20d0 -------------------------> Patient_36de99d8
Observation_7a5e20d0 -------------------------> Encounter_0ce1ede0
Observation_7e18b3e6 -------------------------> Patient_36de99d8
Observation_7e18b3e6 -------------------------> Encounter_97027fee
Observation_7eb29847 -------------------------> Patient_36de99d8
Observation_7eb29847 -------------------------> Encounter_0ce1ede0
Observation_81115e65 -------------------------> Patient_36de99d8
Observation_81115e65 -------------------------> Encounter_78bbe8d2
Observation_86e8a1dc -------------------------> Patient_36de99d8
Observation_86e8a1dc -------------------------> Encounter_e5056c79
Observation_8720ebdc -------------------------> Patient_36de99d8
Observation_8720ebdc -------------------------> Encounter_97027fee
Observation_8f94c891 -------------------------> Patient_36de99d8
Observation_8f94c891 -------------------------> Encounter_e5056c79
Observation_9472b5ee -------------------------> Patient_36de99d8
Observation_9472b5ee -------------------------> Encounter_e5056c79
Observation_985a7c52 -------------------------> Patient_36de99d8
Observation_985a7c52 -------------------------> Encounter_e31fe8bd
Observation_98bd2823 -------------------------> Patient_36de99d8
Observation_98bd2823 -------------------------> Encounter_8763caae
Observation_9ade6fad -------------------------> Patient_36de99d8
Observation_9ade6fad -------------------------> Encounter_78bbe8d2
Observation_9b2b6c04 -------------------------> Patient_36de99d8
Observation_9b2b6c04 -------------------------> Encounter_e5056c79
Observation_a02ce0c8 -------------------------> Patient_36de99d8
Observation_a02ce0c8 -------------------------> Encounter_f8da79d6
Observation_a16ddc23 -------------------------> Patient_36de99d8
Observation_a16ddc23 -------------------------> Encounter_e31fe8bd
Observation_a836db0b -------------------------> Patient_36de99d8
Observation_a836db0b -------------------------> Encounter_e5056c79
Observation_a8ebebe2 -------------------------> Patient_36de99d8
Observation_a8ebebe2 -------------------------> Encounter_3f215624
Observation_abeff9a8 -------------------------> Patient_36de99d8
Observation_abeff9a8 -------------------------> Encounter_f8da79d6
Observation_b2add72f -------------------------> Patient_36de99d8
Observation_b2add72f -------------------------> Encounter_e5056c79
Observation_b2c26e0f -------------------------> Patient_36de99d8
Observation_b2c26e0f -------------------------> Encounter_8763caae
Observation_b3eafcce -------------------------> Patient_36de99d8
Observation_b3eafcce -------------------------> Encounter_e5056c79
Observation_b3fbbc38 -------------------------> Patient_36de99d8
Observation_b3fbbc38 -------------------------> Encounter_0ce1ede0
Observation_b7131b9b -------------------------> Patient_36de99d8
Observation_b7131b9b -------------------------> Encounter_e5056c79
Observation_b7b9f3d0 -------------------------> Patient_36de99d8
Observation_b7b9f3d0 -------------------------> Encounter_78bbe8d2
Observation_b9d7e57e -------------------------> Patient_36de99d8
Observation_b9d7e57e -------------------------> Encounter_78bbe8d2
Observation_bd75f5f5 -------------------------> Patient_36de99d8
Observation_bd75f5f5 -------------------------> Encounter_f8da79d6
Observation_be28b28c -------------------------> Patient_36de99d8
Observation_be28b28c -------------------------> Encounter_78bbe8d2
Observation_c16cb2ae -------------------------> Patient_36de99d8
Observation_c16cb2ae -------------------------> Encounter_8763caae
Observation_c3d6a8c9 -------------------------> Patient_36de99d8
Observation_c3d6a8c9 -------------------------> Encounter_78bbe8d2
Observation_c438bf96 -------------------------> Patient_36de99d8
Observation_c438bf96 -------------------------> Encounter_e31fe8bd
Observation_c463f286 -------------------------> Patient_36de99d8
Observation_c463f286 -------------------------> Encounter_e5056c79
Observation_c7d98de9 -------------------------> Patient_36de99d8
Observation_c7d98de9 -------------------------> Encounter_5173ce09
Observation_c9929e19 -------------------------> Patient_36de99d8
Observation_c9929e19 -------------------------> Encounter_8763caae
Observation_cca3e82a -------------------------> Patient_36de99d8
Observation_cca3e82a -------------------------> Encounter_0ce1ede0
Observation_cd2cf75b -------------------------> Patient_36de99d8
Observation_cd2cf75b -------------------------> Encounter_8763caae
Observation_cd950ffa -------------------------> Patient_36de99d8
Observation_cd950ffa -------------------------> Encounter_78bbe8d2
Observation_ce497f44 -------------------------> Patient_36de99d8
Observation_ce497f44 -------------------------> Encounter_e5056c79
Observation_d8646d30 -------------------------> Patient_36de99d8
Observation_d8646d30 -------------------------> Encounter_78bbe8d2
Observation_da53b5e0 -------------------------> Patient_36de99d8
Observation_da53b5e0 -------------------------> Encounter_78bbe8d2
Observation_dcab4fe6 -------------------------> Patient_36de99d8
Observation_dcab4fe6 -------------------------> Encounter_78bbe8d2
Observation_dd07d3c7 -------------------------> Patient_36de99d8
Observation_dd07d3c7 -------------------------> Encounter_3f215624
Observation_e3df95c3 -------------------------> Patient_36de99d8
Observation_e3df95c3 -------------------------> Encounter_78bbe8d2
Observation_eb2358dc -------------------------> Patient_36de99d8
Observation_eb2358dc -------------------------> Encounter_f8da79d6
Observation_edfb2ae8 -------------------------> Patient_36de99d8
Observation_edfb2ae8 -------------------------> Encounter_97027fee
Observation_ee5a0d4e -------------------------> Patient_36de99d8
Observation_ee5a0d4e -------------------------> Encounter_e5056c79
Observation_f46b1a77 -------------------------> Patient_36de99d8
Observation_f46b1a77 -------------------------> Encounter_e5056c79
Observation_f49b5b78 -------------------------> Patient_36de99d8
Observation_f49b5b78 -------------------------> Encounter_78bbe8d2
Observation_f566b629 -------------------------> Patient_36de99d8
Observation_f566b629 -------------------------> Encounter_78bbe8d2
Observation_f966a91d -------------------------> Patient_36de99d8
Observation_f966a91d -------------------------> Encounter_8763caae
Observation_fa11eba1 -------------------------> Patient_36de99d8
Observation_fa11eba1 -------------------------> Encounter_8763caae
Observation_fb99192f -------------------------> Patient_36de99d8
Observation_fb99192f -------------------------> Encounter_3f215624
Observation_fc064294 -------------------------> Patient_36de99d8
Observation_fc064294 -------------------------> Encounter_3f215624
Observation_fc4525be -------------------------> Patient_36de99d8
Observation_fc4525be -------------------------> Encounter_e5056c79
Procedure_2d4eb209 -------------------------> Patient_36de99d8
Procedure_2d4eb209 -------------------------> Encounter_d341db6d
Procedure_2d4eb209 -------------------------> Condition_4be07c8b
Procedure_5c2303f5 -------------------------> Patient_36de99d8
Procedure_5c2303f5 -------------------------> Encounter_78bbe8d2
Procedure_683bbb4f -------------------------> Patient_36de99d8
Procedure_683bbb4f -------------------------> Encounter_d341db6d
Procedure_77ae9d73 -------------------------> Patient_36de99d8
Procedure_77ae9d73 -------------------------> Encounter_8763caae
Procedure_7c161400 -------------------------> Patient_36de99d8
Procedure_7c161400 -------------------------> Encounter_3c1da3df
Procedure_7c161400 -------------------------> Condition_1883ea9e
Procedure_912bb230 -------------------------> Patient_36de99d8
Procedure_912bb230 -------------------------> Encounter_e31fe8bd
Procedure_912bb230 -------------------------> Condition_53aee5f8
Procedure_e8bf4589 -------------------------> Patient_36de99d8
Procedure_e8bf4589 -------------------------> Encounter_e5056c79
Procedure_fcde288a -------------------------> Patient_36de99d8
Procedure_fcde288a -------------------------> Encounter_97027fee
Procedure_fcde288a -------------------------> Condition_7b9ede4c
@enduml